<svg width="32" height="28" viewBox="0 0 32 28" fill="none" xmlns="http://www.w3.org/2000/svg">
<path opacity="0.6" d="M0.722506 21.728C0.815426 21.5787 0.964103 21.5693 1.16857 21.7C5.81501 24.4067 10.8704 25.76 16.3346 25.76C19.9774 25.76 23.5738 25.0787 27.1237 23.716C27.2166 23.6787 27.3514 23.6227 27.528 23.548C27.7045 23.4733 27.83 23.4173 27.9043 23.38C28.1831 23.268 28.4015 23.324 28.5595 23.548C28.7174 23.772 28.6663 23.9773 28.4061 24.164C28.0716 24.4067 27.6441 24.6867 27.1237 25.004C25.5253 25.956 23.7411 26.6933 21.771 27.216C19.8009 27.7387 17.8772 28 16.0001 28C13.1007 28 10.3593 27.4913 7.77584 26.474C5.1924 25.4567 2.87846 24.024 0.834021 22.176C0.722506 22.0827 0.666748 21.9893 0.666748 21.896C0.666748 21.84 0.685315 21.784 0.722506 21.728ZM9.11402 13.748C9.11402 12.46 9.42997 11.3587 10.0619 10.444C10.6938 9.52932 11.558 8.83868 12.6546 8.372C13.6583 7.94268 14.8942 7.63468 16.3625 7.448C16.8643 7.392 17.6821 7.31732 18.8158 7.224V6.748C18.8158 5.55332 18.6857 4.75068 18.4255 4.34C18.0352 3.78 17.4219 3.5 16.5855 3.5H16.3625C15.7492 3.556 15.2195 3.752 14.7734 4.088C14.3274 4.424 14.0393 4.89068 13.9092 5.488C13.8348 5.86132 13.649 6.076 13.3516 6.132L10.1455 5.74C9.82956 5.66532 9.6716 5.49732 9.6716 5.236C9.6716 5.18 9.68088 5.11468 9.69948 5.04C10.0154 3.37868 10.7914 2.14668 12.0274 1.344C13.2633 0.541324 14.7083 0.093324 16.3625 0H17.0595C19.1783 0 20.8324 0.550676 22.0219 1.652C22.2085 1.83952 22.3809 2.04074 22.5377 2.254C22.6956 2.46868 22.8211 2.66 22.914 2.828C23.0069 2.996 23.0906 3.23868 23.1649 3.556C23.2393 3.87332 23.295 4.09268 23.3322 4.214C23.3694 4.33532 23.3972 4.59668 23.4158 4.998C23.4344 5.39932 23.4437 5.63732 23.4437 5.712V12.488C23.4437 12.9733 23.5134 13.4167 23.6528 13.818C23.7922 14.2193 23.9269 14.5087 24.0571 14.686C24.1871 14.8633 24.4009 15.148 24.6983 15.54C24.8098 15.708 24.8655 15.8573 24.8655 15.988C24.8655 16.1373 24.7912 16.268 24.6425 16.38C23.0999 17.724 22.2635 18.452 22.1334 18.564C21.9104 18.732 21.6409 18.7507 21.3249 18.62C21.0647 18.396 20.8371 18.1813 20.6419 17.976C20.4467 17.7707 20.3074 17.6213 20.2237 17.528C20.1401 17.4347 20.0053 17.2527 19.8195 16.982C19.6336 16.7113 19.5035 16.5293 19.4292 16.436C18.3883 17.5747 17.3661 18.284 16.3625 18.564C15.7306 18.7507 14.95 18.844 14.0207 18.844C12.5896 18.844 11.414 18.4007 10.494 17.514C9.57402 16.6273 9.11402 15.372 9.11402 13.748ZM13.9092 13.188C13.9092 13.916 14.0904 14.4993 14.4528 14.938C14.8152 15.3767 15.3031 15.596 15.9164 15.596C15.9722 15.596 16.0512 15.5867 16.1534 15.568C16.2556 15.5493 16.3253 15.54 16.3625 15.54C17.1431 15.3347 17.7471 14.8307 18.1746 14.028C18.3791 13.6733 18.5324 13.286 18.6346 12.866C18.7368 12.446 18.7926 12.1053 18.8019 11.844C18.8112 11.5827 18.8158 11.1533 18.8158 10.556V9.856C17.7379 9.856 16.9201 9.93068 16.3625 10.08C14.7269 10.5467 13.9092 11.5827 13.9092 13.188ZM25.6183 22.204C25.6554 22.1293 25.7112 22.0547 25.7855 21.98C26.2502 21.6627 26.6962 21.448 27.1237 21.336C27.83 21.1493 28.5177 21.0467 29.1867 21.028C29.3726 21.0093 29.5492 21.0187 29.7164 21.056C30.5528 21.1307 31.0546 21.2707 31.2219 21.476C31.2962 21.588 31.3334 21.756 31.3334 21.98V22.176C31.3334 22.8293 31.1568 23.5993 30.8037 24.486C30.4506 25.3727 29.958 26.0867 29.3261 26.628C29.2332 26.7027 29.1496 26.74 29.0752 26.74C29.038 26.74 29.0009 26.7307 28.9637 26.712C28.8522 26.656 28.8243 26.5533 28.8801 26.404C29.5677 24.78 29.9116 23.6507 29.9116 23.016C29.9116 22.8107 29.8744 22.6613 29.8001 22.568C29.6142 22.344 29.0938 22.232 28.2389 22.232C27.9229 22.232 27.5512 22.2507 27.1237 22.288C26.6591 22.344 26.2316 22.4 25.8413 22.456C25.7298 22.456 25.6554 22.4373 25.6183 22.4C25.5811 22.3627 25.5718 22.3253 25.5904 22.288C25.5904 22.2693 25.5997 22.2413 25.6183 22.204Z" fill="white"/>
</svg>
