<svg width="17" height="18" viewBox="0 0 17 18" fill="none" xmlns="http://www.w3.org/2000/svg">
<path opacity="0.5" d="M7.70406 11.024L6.12919 12.5989C5.7972 12.9309 5.2694 12.9309 4.92889 12.6074C4.83525 12.5138 4.74161 12.4286 4.64797 12.335C3.78713 11.4684 2.99317 10.5379 2.27291 9.55133C1.57486 8.58087 1.01302 7.61042 0.604407 6.64847C0.204306 5.67802 0 4.75013 0 3.8648C0 3.28593 0.102153 2.7326 0.30646 2.22183C0.510766 1.70255 0.834251 1.22584 1.28543 0.8002C1.83025 0.263896 2.42614 0 3.05608 0C3.29444 0 3.5328 0.0510767 3.74562 0.15323C3.96695 0.255383 4.16274 0.408613 4.31597 0.629945L6.29094 3.41362C6.44417 3.62644 6.55483 3.82223 6.63145 4.00951C6.70806 4.18828 6.75063 4.36705 6.75063 4.52879C6.75063 4.7331 6.69104 4.93741 6.57186 5.1332C6.46119 5.32899 6.29945 5.5333 6.09514 5.73761L5.44817 6.41012C5.35453 6.50376 5.31197 6.61442 5.31197 6.75063C5.31197 6.81873 5.32048 6.87832 5.33751 6.94642C5.36305 7.01452 5.38858 7.0656 5.40561 7.11668C5.55884 7.3976 5.82273 7.76365 6.1973 8.20631C6.58037 8.64897 6.98898 9.10015 7.43165 9.55133C7.51678 9.63646 7.61042 9.72158 7.69554 9.80671C8.03605 10.1387 8.04457 10.6835 7.70406 11.024ZM17 13.9014C16.9989 14.2226 16.9262 14.5396 16.7872 14.8292C16.6425 15.1357 16.4552 15.4251 16.2083 15.6975C15.7912 16.1572 15.3315 16.4892 14.8122 16.7021C14.8037 16.7021 14.7952 16.7106 14.7867 16.7106C14.2844 16.9149 13.7396 17.0255 13.1522 17.0255C12.2839 17.0255 11.356 16.8212 10.3771 16.4041C9.3981 15.987 8.41913 15.4251 7.44867 14.7186C7.11668 14.4717 6.78468 14.2248 6.46971 13.9609L9.25338 11.1773C9.49174 11.356 9.70456 11.4922 9.88332 11.5859C9.92589 11.6029 9.97697 11.6284 10.0366 11.654C10.1047 11.6795 10.1728 11.688 10.2494 11.688C10.3941 11.688 10.5048 11.637 10.5984 11.5433L11.2454 10.9049C11.4582 10.692 11.6625 10.5303 11.8583 10.4281C12.0541 10.309 12.2499 10.2494 12.4627 10.2494C12.6244 10.2494 12.7947 10.2834 12.982 10.36C13.1693 10.4367 13.365 10.5473 13.5779 10.692L16.3956 12.6925C16.6169 12.8458 16.7702 13.0245 16.8638 13.2374C16.9489 13.4502 17 13.663 17 13.9014Z" fill="white"/>
</svg>
