<svg width="22" height="22" viewBox="0 0 22 22" fill="none" xmlns="http://www.w3.org/2000/svg">
<path d="M1 1H2.7802C3.8852 1 4.7549 1.93 4.6628 3L3.8136 12.96C3.7804 13.3459 3.8296 13.7342 3.9581 14.1005C4.0866 14.4669 4.2914 14.8031 4.5598 15.0879C4.8282 15.3728 5.1541 15.6001 5.5171 15.7553C5.88 15.9106 6.272 15.9905 6.6681 15.99H17.5644C19.0377 15.99 20.3269 14.81 20.4394 13.38L20.9919 5.88C21.1147 4.22 19.8255 2.87 18.1169 2.87H4.9083M8.1619 7H20.4394M15.5796 21C15.9188 21 16.244 20.8683 16.4839 20.6339C16.7237 20.3995 16.8585 20.0815 16.8585 19.75C16.8585 19.4185 16.7237 19.1005 16.4839 18.8661C16.244 18.6317 15.9188 18.5 15.5796 18.5C15.2404 18.5 14.9151 18.6317 14.6752 18.8661C14.4354 19.1005 14.3007 19.4185 14.3007 19.75C14.3007 20.0815 14.4354 20.3995 14.6752 20.6339C14.9151 20.8683 15.2404 21 15.5796 21ZM7.3945 21C7.7337 21 8.059 20.8683 8.2989 20.6339C8.5387 20.3995 8.6735 20.0815 8.6735 19.75C8.6735 19.4185 8.5387 19.1005 8.2989 18.8661C8.059 18.6317 7.7337 18.5 7.3945 18.5C7.0554 18.5 6.7301 18.6317 6.4902 18.8661C6.2504 19.1005 6.1156 19.4185 6.1156 19.75C6.1156 20.0815 6.2504 20.3995 6.4902 20.6339C6.7301 20.8683 7.0554 21 7.3945 21Z" stroke="#162A4C" stroke-width="1.6" stroke-miterlimit="10" stroke-linecap="round" stroke-linejoin="round"/>
</svg>
