<svg width="27" height="27" viewBox="0 0 27 27" fill="none" xmlns="http://www.w3.org/2000/svg">
<path opacity="0.6" d="M26.6667 18.92C26.6667 23.7733 23.7733 26.6667 18.92 26.6667H17.3333C16.6 26.6667 16 26.0667 16 25.3333V17.64C16 17.28 16.2933 16.9733 16.6533 16.9733L19 16.9333C19.1867 16.92 19.3467 16.7867 19.3867 16.6L19.8533 14.0533C19.8624 13.9956 19.8588 13.9366 19.8429 13.8804C19.8269 13.8242 19.799 13.7721 19.761 13.7277C19.7229 13.6834 19.6757 13.6478 19.6226 13.6234C19.5695 13.5991 19.5118 13.5865 19.4533 13.5867L16.6133 13.6267C16.24 13.6267 15.9467 13.3333 15.9333 12.9733L15.88 9.70667C15.88 9.49333 16.0533 9.30667 16.28 9.30667L19.48 9.25333C19.7067 9.25333 19.88 9.08 19.88 8.85333L19.8267 5.65333C19.8267 5.42667 19.6533 5.25333 19.4267 5.25333L15.8267 5.30667C15.3011 5.31465 14.7824 5.42626 14.3001 5.6351C13.8178 5.84394 13.3814 6.1459 13.016 6.52368C12.6506 6.90146 12.3634 7.34764 12.1707 7.83663C11.9781 8.32563 11.8838 8.84784 11.8933 9.37333L11.96 13.04C11.9733 13.4133 11.68 13.7067 11.3067 13.72L9.70667 13.7467C9.48 13.7467 9.30667 13.92 9.30667 14.1467L9.34667 16.68C9.34667 16.9067 9.52 17.08 9.74667 17.08L11.3467 17.0533C11.72 17.0533 12.0133 17.3467 12.0267 17.7067L12.1467 25.3067C12.16 26.0533 11.56 26.6667 10.8133 26.6667H7.74667C2.89333 26.6667 0 23.7733 0 18.9067V7.74667C0 2.89333 2.89333 0 7.74667 0H18.92C23.7733 0 26.6667 2.89333 26.6667 7.74667V18.92Z" fill="white"/>
</svg>
