<svg width="43" height="43" viewBox="0 0 43 43" fill="none" xmlns="http://www.w3.org/2000/svg">
<circle opacity="0.1" cx="21.5" cy="21.5" r="21.5" fill="#4F4F4F"/>
<path d="M11 13H12.7802C13.8852 13 14.7549 13.93 14.6628 15L13.8136 24.96C13.7804 25.3459 13.8296 25.7342 13.9581 26.1005C14.0866 26.4669 14.2914 26.8031 14.5598 27.0879C14.8282 27.3728 15.1541 27.6001 15.5171 27.7553C15.88 27.9106 16.272 27.9905 16.6681 27.99H27.5644C29.0377 27.99 30.3269 26.81 30.4394 25.38L30.9919 17.88C31.1147 16.22 29.8255 14.87 28.1169 14.87H14.9083M18.1619 19H30.4394M25.5796 33C25.9188 33 26.244 32.8683 26.4839 32.6339C26.7237 32.3995 26.8585 32.0815 26.8585 31.75C26.8585 31.4185 26.7237 31.1005 26.4839 30.8661C26.244 30.6317 25.9188 30.5 25.5796 30.5C25.2404 30.5 24.9151 30.6317 24.6752 30.8661C24.4354 31.1005 24.3007 31.4185 24.3007 31.75C24.3007 32.0815 24.4354 32.3995 24.6752 32.6339C24.9151 32.8683 25.2404 33 25.5796 33ZM17.3945 33C17.7337 33 18.059 32.8683 18.2989 32.6339C18.5387 32.3995 18.6735 32.0815 18.6735 31.75C18.6735 31.4185 18.5387 31.1005 18.2989 30.8661C18.059 30.6317 17.7337 30.5 17.3945 30.5C17.0554 30.5 16.7301 30.6317 16.4902 30.8661C16.2504 31.1005 16.1156 31.4185 16.1156 31.75C16.1156 32.0815 16.2504 32.3995 16.4902 32.6339C16.7301 32.8683 17.0554 33 17.3945 33Z" stroke="#162A4C" stroke-width="2" stroke-miterlimit="10" stroke-linecap="round" stroke-linejoin="round"/>
</svg>
