<svg width="43" height="43" viewBox="0 0 43 43" fill="none" xmlns="http://www.w3.org/2000/svg">
<circle opacity="0.1" cx="21.5" cy="21.5" r="21.5" fill="#4F4F4F"/>
<path d="M30 32C30 28.13 26.1903 25 21.5 25C16.8097 25 13 28.13 13 32M21.5 22C22.8122 22 24.0706 21.4732 24.9985 20.5355C25.9263 19.5979 26.4476 18.3261 26.4476 17C26.4476 15.6739 25.9263 14.4021 24.9985 13.4645C24.0706 12.5268 22.8122 12 21.5 12C20.1878 12 18.9294 12.5268 18.0015 13.4645C17.0737 14.4021 16.5524 15.6739 16.5524 17C16.5524 18.3261 17.0737 19.5979 18.0015 20.5355C18.9294 21.4732 20.1878 22 21.5 22Z" stroke="#162A4C" stroke-width="2.5" stroke-linecap="round" stroke-linejoin="round"/>
</svg>
