<svg width="27" height="27" viewBox="0 0 27 27" fill="none" xmlns="http://www.w3.org/2000/svg">
<path opacity="0.6" d="M19.2535 0H8.08016C3.22683 0 0.333496 2.89333 0.333496 7.74667V18.9067C0.333496 23.7733 3.22683 26.6667 8.08016 26.6667H19.2402C24.0935 26.6667 26.9868 23.7733 26.9868 18.92V7.74667C27.0002 2.89333 24.1068 0 19.2535 0ZM13.6668 18.5067C10.8135 18.5067 8.4935 16.1867 8.4935 13.3333C8.4935 10.48 10.8135 8.16 13.6668 8.16C16.5202 8.16 18.8402 10.48 18.8402 13.3333C18.8402 16.1867 16.5202 18.5067 13.6668 18.5067ZM21.5602 6.50667C21.4935 6.66667 21.4002 6.81333 21.2802 6.94667C21.1468 7.06667 21.0002 7.16 20.8402 7.22667C20.5975 7.32966 20.3297 7.35804 20.0708 7.30817C19.812 7.2583 19.5738 7.13245 19.3868 6.94667C19.2668 6.81333 19.1735 6.66667 19.1068 6.50667C19.0383 6.34642 19.0021 6.17425 19.0002 6C19.0002 5.82667 19.0402 5.65333 19.1068 5.49333C19.1735 5.32 19.2668 5.18667 19.3868 5.05333C19.6935 4.74667 20.1602 4.6 20.5868 4.69333C20.6802 4.70667 20.7602 4.73333 20.8402 4.77333C20.9202 4.8 21.0002 4.84 21.0802 4.89333C21.1468 4.93333 21.2135 5 21.2802 5.05333C21.4002 5.18667 21.4935 5.32 21.5602 5.49333C21.6268 5.65333 21.6668 5.82667 21.6668 6C21.6668 6.17333 21.6268 6.34667 21.5602 6.50667Z" fill="white"/>
</svg>
