<svg width="17" height="15" viewBox="0 0 17 15" fill="none" xmlns="http://www.w3.org/2000/svg">
<path opacity="0.5" d="M12.75 0H4.25C1.7 0 0 1.275 0 4.25V10.2C0 13.175 1.7 14.45 4.25 14.45H12.75C15.3 14.45 17 13.175 17 10.2V4.25C17 1.275 15.3 0 12.75 0ZM13.1495 5.1765L10.489 7.3015C9.928 7.752 9.214 7.973 8.5 7.973C7.786 7.973 7.0635 7.752 6.511 7.3015L3.8505 5.1765C3.72045 5.06855 3.63721 4.91447 3.6182 4.74653C3.59918 4.57858 3.64588 4.40979 3.7485 4.2755C3.9695 4.0035 4.369 3.9525 4.641 4.1735L7.3015 6.2985C7.9475 6.817 9.044 6.817 9.69 6.2985L12.3505 4.1735C12.6225 3.9525 13.0305 3.995 13.243 4.2755C13.464 4.5475 13.4215 4.9555 13.1495 5.1765Z" fill="white"/>
</svg>
