<svg width="17" height="20" viewBox="0 0 17 20" fill="none" xmlns="http://www.w3.org/2000/svg">
<path opacity="0.5" d="M16.7606 6.41692C15.7549 1.99212 11.8952 0 8.50479 0H8.49521C5.11436 0 1.24505 1.98254 0.239416 6.40734C-0.88115 11.3493 2.14534 15.5347 4.8845 18.1685C5.85539 19.1082 7.15359 19.6337 8.50479 19.6339C9.80733 19.6339 11.1099 19.1454 12.1155 18.1685C14.8547 15.5347 17.8812 11.3589 16.7606 6.41692ZM8.50479 11.2152C8.1086 11.2152 7.7163 11.1372 7.35027 10.9856C6.98424 10.834 6.65166 10.6118 6.37151 10.3316C6.09137 10.0515 5.86914 9.71888 5.71753 9.35285C5.56591 8.98682 5.48788 8.59452 5.48788 8.19833C5.48788 7.80214 5.56591 7.40984 5.71753 7.04381C5.86914 6.67778 6.09137 6.3452 6.37151 6.06505C6.65166 5.78491 6.98424 5.56268 7.35027 5.41107C7.7163 5.25946 8.1086 5.18142 8.50479 5.18142C9.30492 5.18142 10.0723 5.49927 10.6381 6.06505C11.2038 6.63083 11.5217 7.3982 11.5217 8.19833C11.5217 8.99846 11.2038 9.76583 10.6381 10.3316C10.0723 10.8974 9.30492 11.2152 8.50479 11.2152Z" fill="white"/>
</svg>
