<svg width="27" height="16" viewBox="0 0 27 16" fill="none" xmlns="http://www.w3.org/2000/svg">
<path d="M1.18188 8.79541C0.6296 8.79541 0.181885 8.34769 0.181885 7.79541C0.181885 7.24313 0.6296 6.79541 1.18188 6.79541L1.18188 8.79541ZM26.4344 7.0883C26.825 7.47883 26.825 8.11199 26.4344 8.50252L20.0705 14.8665C19.68 15.257 19.0468 15.257 18.6563 14.8665C18.2657 14.476 18.2657 13.8428 18.6563 13.4523L24.3131 7.79541L18.6563 2.13856C18.2657 1.74803 18.2657 1.11487 18.6563 0.724342C19.0468 0.333818 19.68 0.333818 20.0705 0.724342L26.4344 7.0883ZM1.18188 6.79541L25.7273 6.79541V8.79541L1.18188 8.79541L1.18188 6.79541Z" fill="white"/>
</svg>
