<svg width="27" height="16" viewBox="0 0 27 16" fill="none" xmlns="http://www.w3.org/2000/svg">
<path d="M26 8.79541C26.5523 8.79541 27 8.34769 27 7.79541C27 7.24313 26.5523 6.79541 26 6.79541V8.79541ZM0.747438 7.0883C0.356915 7.47883 0.356915 8.11199 0.747438 8.50252L7.1114 14.8665C7.50192 15.257 8.13509 15.257 8.52561 14.8665C8.91614 14.476 8.91614 13.8428 8.52561 13.4523L2.86876 7.79541L8.52561 2.13856C8.91614 1.74803 8.91614 1.11487 8.52561 0.724342C8.13509 0.333818 7.50192 0.333818 7.1114 0.724342L0.747438 7.0883ZM26 6.79541L1.45455 6.79541V8.79541L26 8.79541V6.79541Z" fill="white"/>
</svg>
