<svg width="22" height="22" viewBox="0 0 22 22" fill="none" xmlns="http://www.w3.org/2000/svg">
<path d="M21 21L17 17M9.44444 17.8889C10.5534 17.8889 11.6515 17.6705 12.676 17.2461C13.7005 16.8217 14.6314 16.1997 15.4156 15.4156C16.1997 14.6314 16.8217 13.7005 17.2461 12.676C17.6705 11.6515 17.8889 10.5534 17.8889 9.44444C17.8889 8.3355 17.6705 7.23742 17.2461 6.2129C16.8217 5.18837 16.1997 4.25746 15.4156 3.47332C14.6314 2.68918 13.7005 2.06717 12.676 1.64279C11.6515 1.21842 10.5534 1 9.44444 1C7.20484 1 5.05696 1.88968 3.47332 3.47332C1.88968 5.05696 1 7.20484 1 9.44444C1 11.6841 1.88968 13.8319 3.47332 15.4156C5.05696 16.9992 7.20484 17.8889 9.44444 17.8889Z" stroke="black" stroke-width="1.5" stroke-linecap="round" stroke-linejoin="round"/>
</svg>
