<svg width="449" height="204" viewBox="0 0 449 204" fill="none" xmlns="http://www.w3.org/2000/svg">
<path d="M4.694 85H11.162C14.792 85 16.684 83.482 16.684 80.6V80.512C16.684 78.4 15.584 77.234 13.538 76.816C15.298 76.31 16.09 75.1 16.09 73.45V73.362C16.09 70.678 14.308 69.27 10.876 69.27H4.694V85ZM8.17 82.536V78.026H10.436C12.372 78.026 13.164 78.774 13.164 80.226V80.314C13.164 81.744 12.372 82.536 10.612 82.536H8.17ZM8.17 75.738V71.712H10.282C11.954 71.712 12.702 72.306 12.702 73.626V73.714C12.702 75.122 12.02 75.738 10.304 75.738H8.17ZM24.278 82.822C22.474 82.822 21.462 81.502 21.462 79.302V79.126C21.462 76.926 22.518 75.65 24.278 75.65C26.06 75.65 27.094 76.97 27.094 79.17V79.324C27.094 81.502 26.06 82.822 24.278 82.822ZM24.256 85.242C27.71 85.242 30.328 82.932 30.328 79.302V79.126C30.328 75.54 27.732 73.23 24.278 73.23C20.824 73.23 18.206 75.584 18.206 79.192V79.368C18.206 82.954 20.824 85.242 24.256 85.242ZM37.8346 82.822C36.0306 82.822 35.0186 81.502 35.0186 79.302V79.126C35.0186 76.926 36.0746 75.65 37.8346 75.65C39.6166 75.65 40.6506 76.97 40.6506 79.17V79.324C40.6506 81.502 39.6166 82.822 37.8346 82.822ZM37.8126 85.242C41.2666 85.242 43.8846 82.932 43.8846 79.302V79.126C43.8846 75.54 41.2886 73.23 37.8346 73.23C34.3806 73.23 31.7626 75.584 31.7626 79.192V79.368C31.7626 82.954 34.3806 85.242 37.8126 85.242ZM50.2252 85.22C51.0832 85.22 51.7212 85.066 52.1612 84.912V82.448C51.7872 82.602 51.4352 82.668 50.9512 82.668C50.1372 82.668 49.6752 82.228 49.6752 81.304V75.76H52.0952V73.494H49.6752V71.008H46.5072V73.494H45.0332V75.76H46.5072V81.59C46.5072 83.988 47.8052 85.22 50.2252 85.22ZM54.3162 85H57.5062V78.356C57.5062 76.662 58.5402 75.826 59.9042 75.826C61.3122 75.826 61.9282 76.574 61.9282 78.136V85H65.1182V77.674C65.1182 74.594 63.5122 73.23 61.2462 73.23C59.3322 73.23 58.0782 74.176 57.5062 75.32V68.28H54.3162V85ZM73.0143 85H76.1823V73.802L82.7383 85H86.3023V69.27H83.1343V79.632L77.1503 69.27H73.0143V85ZM94.6608 82.822C92.8568 82.822 91.8448 81.502 91.8448 79.302V79.126C91.8448 76.926 92.9008 75.65 94.6608 75.65C96.4428 75.65 97.4768 76.97 97.4768 79.17V79.324C97.4768 81.502 96.4428 82.822 94.6608 82.822ZM94.6388 85.242C98.0928 85.242 100.711 82.932 100.711 79.302V79.126C100.711 75.54 98.1148 73.23 94.6608 73.23C91.2068 73.23 88.5888 75.584 88.5888 79.192V79.368C88.5888 82.954 91.2068 85.242 94.6388 85.242ZM114.612 85H118.066V81.876H120.134V79.324H118.066V69.27H113.688L106.89 80.578V81.876H114.612V85ZM110.454 79.324L114.678 71.954V79.324H110.454ZM121.02 85H132.9V82.294H126.784L129.754 79.39C131.58 77.63 132.79 75.914 132.79 73.824C132.79 70.986 130.81 69.05 127.334 69.05C123.814 69.05 121.614 71.03 121.438 74.66H124.672C124.914 72.592 125.794 71.778 127.18 71.778C128.544 71.778 129.27 72.614 129.27 73.912C129.27 75.342 128.302 76.728 126.784 78.334L121.02 84.428V85ZM136.131 87.706L139.123 82.58L136.131 81.458L134.195 86.892L136.131 87.706ZM153.413 85H156.867V81.876H158.935V79.324H156.867V69.27H152.489L145.691 80.578V81.876H153.413V85ZM149.255 79.324L153.479 71.954V79.324H149.255ZM166.091 85.242C169.721 85.242 172.119 83.108 172.119 79.764C172.119 76.42 170.161 74.462 167.301 74.462C165.519 74.462 164.419 75.166 163.803 75.914L163.869 71.976H171.173V69.27H161.207L160.987 78.224H162.967C163.605 77.498 164.507 76.97 165.981 76.97C167.565 76.97 168.533 78.026 168.533 79.72C168.533 81.392 167.675 82.514 166.069 82.514C164.265 82.514 163.737 81.634 163.539 80.314H160.261C160.415 83.13 162.219 85.242 166.091 85.242ZM174.76 87.706L177.752 82.58L174.76 81.458L172.824 86.892L174.76 87.706ZM192.042 85H195.496V81.876H197.564V79.324H195.496V69.27H191.118L184.32 80.578V81.876H192.042V85ZM187.884 79.324L192.108 71.954V79.324H187.884ZM205.226 85.242C208.724 85.242 211.364 83.548 211.364 80.468C211.364 78.598 210.33 77.234 208.482 76.596C209.868 75.98 210.77 74.902 210.77 73.318C210.77 70.634 208.262 69.05 205.248 69.05C202.3 69.05 199.682 70.612 199.682 73.34C199.682 74.924 200.54 76.024 201.97 76.618C200.166 77.256 199.066 78.642 199.066 80.556C199.066 83.636 201.75 85.242 205.226 85.242ZM205.226 82.646C203.774 82.646 202.608 81.788 202.608 80.226C202.608 78.664 203.796 77.806 205.248 77.806C206.722 77.806 207.844 78.664 207.844 80.204C207.844 81.766 206.722 82.646 205.226 82.646ZM205.27 75.628C204.038 75.628 203.004 74.858 203.004 73.582C203.004 72.306 203.994 71.536 205.248 71.536C206.502 71.536 207.47 72.35 207.47 73.56C207.47 74.858 206.546 75.628 205.27 75.628ZM232.733 76.838H229.917L228.509 79.588L226.045 76.574C228.135 75.694 229.257 74.418 229.257 72.636C229.257 70.392 227.277 69.116 224.989 69.116C222.503 69.116 220.369 70.48 220.369 73.032C220.369 73.912 220.699 74.946 221.469 76.002C219.335 77.036 217.971 78.444 217.971 80.622C217.971 83.482 220.105 85.22 223.295 85.22C225.319 85.22 226.595 84.494 227.585 83.592L228.729 85H232.799L230.181 81.788L232.733 76.838ZM223.757 82.602C222.195 82.602 221.315 81.678 221.315 80.27C221.315 79.038 221.997 78.4 222.943 77.916L225.935 81.546C225.341 82.25 224.593 82.602 223.757 82.602ZM223.471 73.076C223.471 71.976 224.153 71.404 225.033 71.404C225.847 71.404 226.419 71.998 226.419 72.812C226.419 73.89 225.847 74.55 224.527 75.166C223.867 74.374 223.471 73.736 223.471 73.076ZM246.44 85H249.894V81.876H251.962V79.324H249.894V69.27H245.516L238.718 80.578V81.876H246.44V85ZM242.282 79.324L246.506 71.954V79.324H242.282ZM259.404 85.22C263.628 85.22 265.982 82.338 265.982 77.19V76.486C265.982 71.954 263.892 69.028 259.558 69.028C255.796 69.028 253.464 71.228 253.464 74.484C253.464 77.674 255.686 79.566 258.722 79.566C260.614 79.566 261.758 78.796 262.484 77.652C262.418 80.864 261.384 82.514 259.294 82.514C257.798 82.514 257.16 81.832 256.94 80.754H253.618C253.97 83.592 255.994 85.22 259.404 85.22ZM259.514 77.19C257.93 77.19 256.918 76.046 256.918 74.396C256.918 72.746 257.952 71.602 259.514 71.602C261.12 71.602 262.198 72.724 262.198 74.55C262.198 76.09 261.12 77.19 259.514 77.19Z" fill="white"/>
<path d="M9.224 127H11.688L15.56 115.56H13.56L10.568 124.84L7.592 115.56H5.368L9.224 127ZM17.2979 127H19.4419V115.56H17.2979V127ZM22.1401 127H24.2681V122.648H25.8681C28.3161 122.648 30.0601 121.576 30.0601 119.16V119.096C30.0601 116.696 28.3801 115.56 25.8201 115.56H22.1401V127ZM24.2681 121.112V117.208H25.8201C27.1801 117.208 27.9801 117.736 27.9801 119.096V119.16C27.9801 120.424 27.2281 121.112 25.8201 121.112H24.2681ZM35.7026 127H37.8306V122.648H39.4306C41.8786 122.648 43.6226 121.576 43.6226 119.16V119.096C43.6226 116.696 41.9426 115.56 39.3826 115.56H35.7026V127ZM37.8306 121.112V117.208H39.3826C40.7426 117.208 41.5426 117.736 41.5426 119.096V119.16C41.5426 120.424 40.7906 121.112 39.3826 121.112H37.8306ZM45.2926 127H47.2286V122.648C47.2286 120.872 48.2526 120.328 49.9486 120.312V118.504C48.5406 118.52 47.7566 119.144 47.2286 120.2V118.632H45.2926V127ZM55.1758 127.16C57.3198 127.16 58.7438 126.2 59.0158 124.44H57.1438C56.9998 125.256 56.3918 125.72 55.2238 125.72C53.7838 125.72 52.9838 124.824 52.9198 123.24H59.0478V122.68C59.0478 119.688 57.1758 118.456 55.0958 118.456C52.7118 118.456 50.9358 120.184 50.9358 122.776V122.904C50.9358 125.544 52.7118 127.16 55.1758 127.16ZM52.9518 121.944C53.1438 120.648 53.9278 119.864 55.0958 119.864C56.2958 119.864 57.0318 120.504 57.1278 121.944H52.9518ZM62.8128 127H65.0688L68.0928 118.632H66.1888L64.0288 125.016L61.8368 118.632H59.7568L62.8128 127ZM69.575 127H71.511V118.632H69.575V127ZM70.519 117.256C71.159 117.256 71.671 116.776 71.671 116.152C71.671 115.512 71.159 115.032 70.519 115.032C69.879 115.032 69.367 115.512 69.367 116.152C69.367 116.776 69.879 117.256 70.519 117.256ZM77.5508 127.16C79.6948 127.16 81.1188 126.2 81.3908 124.44H79.5188C79.3748 125.256 78.7668 125.72 77.5988 125.72C76.1588 125.72 75.3588 124.824 75.2948 123.24H81.4228V122.68C81.4228 119.688 79.5508 118.456 77.4708 118.456C75.0868 118.456 73.3108 120.184 73.3108 122.776V122.904C73.3108 125.544 75.0868 127.16 77.5508 127.16ZM75.3268 121.944C75.5188 120.648 76.3028 119.864 77.4708 119.864C78.6708 119.864 79.4068 120.504 79.5028 121.944H75.3268ZM84.7238 127H86.7078L88.4038 121.368L89.9558 127H91.9238L94.5478 118.632H92.6598L90.9158 124.68L89.2838 118.632H87.6678L85.8918 124.68L84.2278 118.632H82.1638L84.7238 127ZM100.032 129.368H101.472V114.584H100.032V129.368ZM106.881 127H115.153V125.352H110.289L112.833 122.872C114.193 121.56 115.073 120.264 115.073 118.776C115.073 116.76 113.665 115.4 111.297 115.4C108.881 115.4 107.377 116.84 107.233 119.336H109.185C109.377 117.72 110.097 117.064 111.233 117.064C112.337 117.064 112.945 117.736 112.945 118.808C112.945 119.896 112.289 120.904 111.201 122.056L106.881 126.616V127ZM121.109 127.16C123.701 127.16 125.333 125.592 125.333 123.272C125.333 121.048 123.765 119.544 121.573 119.544C120.213 119.544 119.269 120.136 118.741 121.016C118.805 118.408 119.812 117.048 121.349 117.048C122.453 117.048 122.901 117.56 123.109 118.424H125.093C124.821 116.424 123.445 115.4 121.365 115.4C118.629 115.4 116.629 117.56 116.629 121.528V121.8C116.629 124.824 117.781 127.16 121.109 127.16ZM121.077 125.592C119.781 125.592 118.869 124.712 118.869 123.192C118.869 121.928 119.781 121.016 121.077 121.016C122.389 121.016 123.221 121.944 123.221 123.32C123.221 124.68 122.357 125.592 121.077 125.592ZM131.187 127H133.107V118.36L136.579 127H137.267L140.675 118.36V127H142.803V115.56H139.987L137.043 123.368L134.035 115.56H131.187V127ZM147.375 127.16C148.655 127.16 149.391 126.696 149.935 125.976V127H151.839V121.512C151.839 119.224 150.367 118.456 148.495 118.456C146.623 118.456 145.071 119.272 144.911 121.224H146.783C146.879 120.392 147.375 119.912 148.383 119.912C149.519 119.912 149.903 120.472 149.903 121.592V122.024H148.863C146.463 122.024 144.575 122.728 144.575 124.68C144.575 126.424 145.839 127.16 147.375 127.16ZM147.839 125.768C146.879 125.768 146.495 125.304 146.495 124.6C146.495 123.576 147.439 123.24 148.911 123.24H149.903V124.072C149.903 125.144 149.023 125.768 147.839 125.768ZM154.752 129.864H156.656L161.216 118.632H159.328L157.28 124.024L155.056 118.632H152.96L156.272 126.152L154.752 129.864ZM169.381 127H177.653V125.352H172.789L175.333 122.872C176.693 121.56 177.573 120.264 177.573 118.776C177.573 116.76 176.165 115.4 173.797 115.4C171.381 115.4 169.877 116.84 169.733 119.336H171.685C171.877 117.72 172.597 117.064 173.733 117.064C174.837 117.064 175.445 117.736 175.445 118.808C175.445 119.896 174.789 120.904 173.701 122.056L169.381 126.616V127ZM183.977 125.464C182.265 125.464 181.273 124.152 181.273 121.56V120.984C181.273 118.44 182.217 117.064 183.945 117.064C185.657 117.064 186.585 118.536 186.585 120.968V121.528C186.585 124.12 185.737 125.464 183.977 125.464ZM183.929 127.16C186.921 127.16 188.713 124.968 188.713 121.528V120.952C188.713 117.512 186.825 115.4 183.929 115.4C181.049 115.4 179.129 117.528 179.129 121V121.576C179.129 125.016 181.017 127.16 183.929 127.16ZM189.771 127H198.043V125.352H193.179L195.723 122.872C197.083 121.56 197.963 120.264 197.963 118.776C197.963 116.76 196.555 115.4 194.187 115.4C191.771 115.4 190.267 116.84 190.123 119.336H192.075C192.267 117.72 192.987 117.064 194.123 117.064C195.227 117.064 195.835 117.736 195.835 118.808C195.835 119.896 195.179 120.904 194.091 122.056L189.771 126.616V127ZM199.099 127H207.371V125.352H202.507L205.051 122.872C206.411 121.56 207.291 120.264 207.291 118.776C207.291 116.76 205.883 115.4 203.515 115.4C201.099 115.4 199.595 116.84 199.451 119.336H201.403C201.595 117.72 202.315 117.064 203.451 117.064C204.555 117.064 205.163 117.736 205.163 118.808C205.163 119.896 204.507 120.904 203.419 122.056L199.099 126.616V127ZM213.266 129.368H214.706V114.584H213.266V129.368ZM222.803 127H224.947V115.56H223.043L220.387 117.448V119.32L222.803 117.672V127ZM229.428 127H231.572V115.56H229.668L227.012 117.448V119.32L229.428 117.672V127ZM235.571 127.112C236.291 127.112 236.851 126.568 236.851 125.864C236.851 125.16 236.291 124.6 235.571 124.6C234.867 124.6 234.307 125.16 234.307 125.864C234.307 126.568 234.867 127.112 235.571 127.112ZM235.571 122.44C236.291 122.44 236.851 121.88 236.851 121.176C236.851 120.472 236.291 119.928 235.571 119.928C234.867 119.928 234.307 120.472 234.307 121.176C234.307 121.88 234.867 122.44 235.571 122.44ZM243.617 125.464C241.905 125.464 240.913 124.152 240.913 121.56V120.984C240.913 118.44 241.857 117.064 243.585 117.064C245.297 117.064 246.225 118.536 246.225 120.968V121.528C246.225 124.12 245.377 125.464 243.617 125.464ZM243.569 127.16C246.561 127.16 248.353 124.968 248.353 121.528V120.952C248.353 117.512 246.465 115.4 243.569 115.4C240.689 115.4 238.769 117.528 238.769 121V121.576C238.769 125.016 240.657 127.16 243.569 127.16ZM254.836 125.464C253.124 125.464 252.132 124.152 252.132 121.56V120.984C252.132 118.44 253.076 117.064 254.804 117.064C256.516 117.064 257.444 118.536 257.444 120.968V121.528C257.444 124.12 256.596 125.464 254.836 125.464ZM254.788 127.16C257.78 127.16 259.572 124.968 259.572 121.528V120.952C259.572 117.512 257.684 115.4 254.788 115.4C251.908 115.4 249.988 117.528 249.988 121V121.576C249.988 125.016 251.876 127.16 254.788 127.16ZM267.547 127.16C268.827 127.16 269.563 126.696 270.107 125.976V127H272.011V121.512C272.011 119.224 270.539 118.456 268.667 118.456C266.795 118.456 265.243 119.272 265.083 121.224H266.955C267.051 120.392 267.547 119.912 268.555 119.912C269.691 119.912 270.075 120.472 270.075 121.592V122.024H269.035C266.635 122.024 264.747 122.728 264.747 124.68C264.747 126.424 266.011 127.16 267.547 127.16ZM268.011 125.768C267.051 125.768 266.667 125.304 266.667 124.6C266.667 123.576 267.611 123.24 269.083 123.24H270.075V124.072C270.075 125.144 269.195 125.768 268.011 125.768ZM274.23 127H276.166V121.992C276.166 120.712 277.046 120.072 278.006 120.072C278.95 120.072 279.494 120.6 279.494 121.832V127H281.43V121.992C281.43 120.712 282.31 120.072 283.27 120.072C284.23 120.072 284.758 120.6 284.758 121.832V127H286.694V121.704C286.694 119.4 285.446 118.456 283.91 118.456C282.87 118.456 281.718 118.92 281.078 119.96C280.662 118.92 279.798 118.456 278.71 118.456C277.478 118.456 276.566 119.128 276.166 119.912V118.632H274.23V127ZM295.578 127.144C296.17 127.144 296.586 127.048 296.89 126.936V125.4C296.618 125.512 296.33 125.56 295.946 125.56C295.338 125.56 294.986 125.224 294.986 124.488V120.088H296.826V118.632H294.986V116.792H293.05V118.632H291.93V120.088H293.05V124.664C293.05 126.248 293.914 127.144 295.578 127.144ZM302.38 125.656C300.908 125.656 300.06 124.584 300.06 122.872V122.744C300.06 121.016 300.94 119.976 302.38 119.976C303.82 119.976 304.684 121.032 304.684 122.76V122.872C304.684 124.584 303.82 125.656 302.38 125.656ZM302.364 127.16C304.828 127.16 306.668 125.464 306.668 122.856V122.728C306.668 120.168 304.828 118.456 302.38 118.456C299.916 118.456 298.076 120.184 298.076 122.776V122.904C298.076 125.448 299.9 127.16 302.364 127.16ZM313.19 127H315.382L319.542 115.816V115.56H311.542V117.288H316.87L313.19 127ZM321.368 127.112C322.088 127.112 322.648 126.568 322.648 125.864C322.648 125.16 322.088 124.6 321.368 124.6C320.664 124.6 320.104 125.16 320.104 125.864C320.104 126.568 320.664 127.112 321.368 127.112ZM321.368 122.44C322.088 122.44 322.648 121.88 322.648 121.176C322.648 120.472 322.088 119.928 321.368 119.928C320.664 119.928 320.104 120.472 320.104 121.176C320.104 121.88 320.664 122.44 321.368 122.44ZM328.458 127.16C331.082 127.16 332.746 125.848 332.746 123.736C332.746 122.216 331.866 121.272 330.538 120.968C331.642 120.552 332.394 119.768 332.394 118.472C332.394 116.776 331.002 115.4 328.618 115.4C326.17 115.4 324.682 116.92 324.57 118.904H326.458C326.586 117.752 327.37 117.016 328.586 117.016C329.77 117.016 330.362 117.704 330.362 118.632C330.362 119.704 329.77 120.312 328.458 120.312H327.642V121.832H328.522C329.914 121.832 330.586 122.456 330.586 123.704C330.586 124.84 329.898 125.56 328.41 125.56C326.874 125.56 326.202 124.664 326.09 123.464H324.154C324.25 125.656 325.738 127.16 328.458 127.16ZM339.227 125.464C337.515 125.464 336.523 124.152 336.523 121.56V120.984C336.523 118.44 337.467 117.064 339.195 117.064C340.907 117.064 341.835 118.536 341.835 120.968V121.528C341.835 124.12 340.987 125.464 339.227 125.464ZM339.179 127.16C342.171 127.16 343.963 124.968 343.963 121.528V120.952C343.963 117.512 342.075 115.4 339.179 115.4C336.299 115.4 334.379 117.528 334.379 121V121.576C334.379 125.016 336.267 127.16 339.179 127.16ZM349.746 129.864H351.682V125.688C352.13 126.504 353.09 127.16 354.418 127.16C356.578 127.16 358.13 125.528 358.13 122.84V122.712C358.13 120.008 356.514 118.456 354.418 118.456C353.186 118.456 352.146 119.176 351.682 119.976V118.632H349.746V129.864ZM353.938 125.624C352.53 125.624 351.618 124.744 351.618 122.872V122.744C351.618 120.888 352.578 119.976 353.922 119.976C355.186 119.976 356.146 120.888 356.146 122.744V122.872C356.146 124.664 355.362 125.624 353.938 125.624ZM359.871 127H361.807V121.992C361.807 120.712 362.687 120.072 363.647 120.072C364.591 120.072 365.135 120.6 365.135 121.832V127H367.071V121.992C367.071 120.712 367.951 120.072 368.911 120.072C369.871 120.072 370.399 120.6 370.399 121.832V127H372.335V121.704C372.335 119.4 371.087 118.456 369.551 118.456C368.511 118.456 367.359 118.92 366.719 119.96C366.303 118.92 365.439 118.456 364.351 118.456C363.119 118.456 362.207 119.128 361.807 119.912V118.632H359.871V127Z" fill="white"/>
<path d="M6.312 151H8.44V146.648H10.04C12.488 146.648 14.232 145.576 14.232 143.16V143.096C14.232 140.696 12.552 139.56 9.992 139.56H6.312V151ZM8.44 145.112V141.208H9.992C11.352 141.208 12.152 141.736 12.152 143.096V143.16C12.152 144.424 11.4 145.112 9.992 145.112H8.44ZM18.702 151.16C20.062 151.16 20.942 150.504 21.358 149.688V151H23.294V142.632H21.358V147.608C21.358 148.936 20.446 149.608 19.406 149.608C18.286 149.608 17.758 149.032 17.758 147.768V142.632H15.822V147.992C15.822 150.216 17.054 151.16 18.702 151.16ZM30.2615 151.16C32.4215 151.16 33.9735 149.528 33.9735 146.84V146.712C33.9735 144.008 32.3575 142.456 30.2615 142.456C29.0295 142.456 27.9895 143.176 27.5255 143.976V138.76H25.5895V151H27.5255V149.656C27.9735 150.504 28.9335 151.16 30.2615 151.16ZM29.7815 149.624C28.3735 149.624 27.4615 148.744 27.4615 146.872V146.744C27.4615 144.888 28.4215 143.976 29.7655 143.976C31.0295 143.976 31.9895 144.888 31.9895 146.744V146.872C31.9895 148.664 31.2055 149.624 29.7815 149.624ZM35.7625 151H37.6985V138.76H35.7625V151ZM40.1063 151H42.0423V142.632H40.1063V151ZM41.0503 141.256C41.6903 141.256 42.2023 140.776 42.2023 140.152C42.2023 139.512 41.6903 139.032 41.0503 139.032C40.4103 139.032 39.8983 139.512 39.8983 140.152C39.8983 140.776 40.4103 141.256 41.0503 141.256ZM48.066 151.16C50.338 151.16 51.794 149.8 51.938 147.88H50.162C50.05 149.064 49.17 149.672 48.146 149.672C46.722 149.672 45.826 148.712 45.826 146.888V146.76C45.826 145.032 46.77 144.008 48.098 144.008C49.122 144.008 49.858 144.472 50.018 145.592H51.89C51.666 143.288 49.922 142.456 48.066 142.456C45.73 142.456 43.842 144.136 43.842 146.792V146.92C43.842 149.592 45.666 151.16 48.066 151.16ZM59.7056 149.32V141.24H60.9376C63.6256 141.24 64.7456 142.728 64.7456 145.192V145.32C64.7456 147.848 63.5136 149.32 60.9536 149.32H59.7056ZM57.5776 151H61.0176C65.0336 151 66.9696 148.632 66.9696 145.304V145.16C66.9696 141.832 65.0336 139.56 61.0496 139.56H57.5776V151ZM71.0315 151.16C72.3115 151.16 73.0475 150.696 73.5915 149.976V151H75.4955V145.512C75.4955 143.224 74.0235 142.456 72.1515 142.456C70.2795 142.456 68.7275 143.272 68.5675 145.224H70.4395C70.5355 144.392 71.0315 143.912 72.0395 143.912C73.1755 143.912 73.5595 144.472 73.5595 145.592V146.024H72.5195C70.1195 146.024 68.2315 146.728 68.2315 148.68C68.2315 150.424 69.4955 151.16 71.0315 151.16ZM71.4955 149.768C70.5355 149.768 70.1515 149.304 70.1515 148.6C70.1515 147.576 71.0955 147.24 72.5675 147.24H73.5595V148.072C73.5595 149.144 72.6795 149.768 71.4955 149.768ZM78.4081 153.864H80.3121L84.8721 142.632H82.9841L80.9361 148.024L78.7121 142.632H76.6161L79.9281 150.152L78.4081 153.864ZM89.1879 151.16C91.3319 151.16 92.5319 150.184 92.5319 148.488C92.5319 146.712 91.3639 146.232 89.3959 145.928C88.0679 145.704 87.6679 145.464 87.6679 144.856C87.6679 144.264 88.1639 143.864 88.9959 143.864C89.8919 143.864 90.3239 144.216 90.4839 144.984H92.2759C92.0679 143.096 90.7079 142.456 88.9959 142.456C87.4279 142.456 85.8599 143.288 85.8599 144.968C85.8599 146.536 86.6759 147.16 88.8839 147.512C90.1159 147.72 90.6759 147.976 90.6759 148.664C90.6759 149.368 90.2119 149.736 89.1719 149.736C88.0359 149.736 87.6039 149.24 87.5079 148.392H85.6839C85.7639 150.168 87.0279 151.16 89.1879 151.16ZM100.299 153.368H101.995C100.699 151.64 99.5626 149.32 99.5626 145.992C99.5626 142.68 100.699 140.344 101.995 138.616H100.299C98.9226 140.248 97.6426 142.664 97.6426 145.992C97.6426 149.336 98.9226 151.736 100.299 153.368ZM103.562 151H110.986V149.32H105.69V145.976H109.722V144.376H105.69V141.24H110.714V139.56H103.562V151ZM112.746 151H114.682V146.072C114.682 144.744 115.562 144.072 116.65 144.072C117.802 144.072 118.314 144.648 118.314 145.912V151H120.25V145.736C120.25 143.432 119.066 142.456 117.386 142.456C116.01 142.456 115.082 143.144 114.682 143.96V142.632H112.746V151ZM125.328 151.144C125.92 151.144 126.336 151.048 126.64 150.936V149.4C126.368 149.512 126.08 149.56 125.696 149.56C125.088 149.56 124.736 149.224 124.736 148.488V144.088H126.576V142.632H124.736V140.792H122.8V142.632H121.68V144.088H122.8V148.664C122.8 150.248 123.664 151.144 125.328 151.144ZM128.386 151H130.322V146.648C130.322 144.872 131.346 144.328 133.042 144.312V142.504C131.634 142.52 130.85 143.144 130.322 144.2V142.632H128.386V151ZM135.752 153.864H137.656L142.216 142.632H140.328L138.28 148.024L136.056 142.632H133.96L137.272 150.152L135.752 153.864ZM147.64 151H149.768V146.312H153.672V144.664H149.768V141.256H154.728V139.56H147.64V151ZM156.105 151H158.041V146.648C158.041 144.872 159.065 144.328 160.761 144.312V142.504C159.353 142.52 158.569 143.144 158.041 144.2V142.632H156.105V151ZM165.988 151.16C168.132 151.16 169.556 150.2 169.828 148.44H167.956C167.812 149.256 167.204 149.72 166.036 149.72C164.596 149.72 163.796 148.824 163.732 147.24H169.86V146.68C169.86 143.688 167.988 142.456 165.908 142.456C163.524 142.456 161.748 144.184 161.748 146.776V146.904C161.748 149.544 163.524 151.16 165.988 151.16ZM163.764 145.944C163.956 144.648 164.74 143.864 165.908 143.864C167.108 143.864 167.844 144.504 167.94 145.944H163.764ZM175.27 151.16C177.414 151.16 178.838 150.2 179.11 148.44H177.238C177.094 149.256 176.486 149.72 175.318 149.72C173.878 149.72 173.078 148.824 173.014 147.24H179.142V146.68C179.142 143.688 177.27 142.456 175.19 142.456C172.806 142.456 171.03 144.184 171.03 146.776V146.904C171.03 149.544 172.806 151.16 175.27 151.16ZM173.046 145.944C173.238 144.648 174.022 143.864 175.19 143.864C176.39 143.864 177.126 144.504 177.222 145.944H173.046ZM179.835 153.336H181.515C182.891 151.704 184.171 149.288 184.171 145.96C184.171 142.616 182.891 140.216 181.515 138.584H179.835C181.115 140.312 182.251 142.632 182.251 145.96C182.251 149.272 181.115 151.608 179.835 153.336ZM190.078 153.368H191.518V138.584H190.078V153.368ZM196.928 151H205.2V149.352H200.336L202.88 146.872C204.24 145.56 205.12 144.264 205.12 142.776C205.12 140.76 203.712 139.4 201.344 139.4C198.928 139.4 197.424 140.84 197.28 143.336H199.232C199.424 141.72 200.144 141.064 201.28 141.064C202.384 141.064 202.992 141.736 202.992 142.808C202.992 143.896 202.336 144.904 201.248 146.056L196.928 150.616V151ZM207.971 151H210.163L214.323 139.816V139.56H206.323V141.288H211.651L207.971 151ZM219.287 147.336H223.127V145.736H219.287V147.336ZM228.084 151H236.356V149.352H231.492L234.036 146.872C235.396 145.56 236.276 144.264 236.276 142.776C236.276 140.76 234.868 139.4 232.5 139.4C230.084 139.4 228.58 140.84 228.436 143.336H230.388C230.58 141.72 231.3 141.064 232.436 141.064C233.54 141.064 234.148 141.736 234.148 142.808C234.148 143.896 233.492 144.904 232.404 146.056L228.084 150.616V151ZM241.926 151.144C244.87 151.144 246.534 149.048 246.534 145.288V144.696C246.534 141.4 245.062 139.384 242.07 139.384C239.462 139.384 237.83 140.968 237.83 143.304C237.83 145.56 239.414 147.016 241.622 147.016C242.982 147.016 243.91 146.44 244.438 145.576C244.406 148.184 243.526 149.496 241.894 149.496C240.662 149.496 240.134 148.92 239.926 148.024H237.926C238.198 149.992 239.59 151.144 241.926 151.144ZM242.07 145.528C240.758 145.528 239.926 144.616 239.926 143.24C239.926 141.88 240.774 140.968 242.054 140.968C243.366 140.968 244.278 141.864 244.278 143.4C244.278 144.664 243.366 145.528 242.07 145.528ZM252.484 151H254.404V142.36L257.876 151H258.564L261.972 142.36V151H264.1V139.56H261.284L258.34 147.368L255.332 139.56H252.484V151ZM268.672 151.16C269.952 151.16 270.688 150.696 271.232 149.976V151H273.136V145.512C273.136 143.224 271.664 142.456 269.792 142.456C267.92 142.456 266.368 143.272 266.208 145.224H268.08C268.176 144.392 268.672 143.912 269.68 143.912C270.816 143.912 271.2 144.472 271.2 145.592V146.024H270.16C267.76 146.024 265.872 146.728 265.872 148.68C265.872 150.424 267.136 151.16 268.672 151.16ZM269.136 149.768C268.176 149.768 267.792 149.304 267.792 148.6C267.792 147.576 268.736 147.24 270.208 147.24H271.2V148.072C271.2 149.144 270.32 149.768 269.136 149.768ZM276.049 153.864H277.953L282.513 142.632H280.625L278.577 148.024L276.353 142.632H274.257L277.569 150.152L276.049 153.864ZM287.969 153.368H289.409V138.584H287.969V153.368ZM297.506 151H299.65V139.56H297.746L295.09 141.448V143.32L297.506 141.672V151ZM304.131 151H306.275V139.56H304.371L301.715 141.448V143.32L304.131 141.672V151ZM310.274 151.112C310.994 151.112 311.554 150.568 311.554 149.864C311.554 149.16 310.994 148.6 310.274 148.6C309.57 148.6 309.01 149.16 309.01 149.864C309.01 150.568 309.57 151.112 310.274 151.112ZM310.274 146.44C310.994 146.44 311.554 145.88 311.554 145.176C311.554 144.472 310.994 143.928 310.274 143.928C309.57 143.928 309.01 144.472 309.01 145.176C309.01 145.88 309.57 146.44 310.274 146.44ZM318.32 149.464C316.608 149.464 315.616 148.152 315.616 145.56V144.984C315.616 142.44 316.56 141.064 318.288 141.064C320 141.064 320.928 142.536 320.928 144.968V145.528C320.928 148.12 320.08 149.464 318.32 149.464ZM318.272 151.16C321.264 151.16 323.056 148.968 323.056 145.528V144.952C323.056 141.512 321.168 139.4 318.272 139.4C315.392 139.4 313.472 141.528 313.472 145V145.576C313.472 149.016 315.36 151.16 318.272 151.16ZM329.539 149.464C327.827 149.464 326.835 148.152 326.835 145.56V144.984C326.835 142.44 327.779 141.064 329.507 141.064C331.219 141.064 332.147 142.536 332.147 144.968V145.528C332.147 148.12 331.299 149.464 329.539 149.464ZM329.491 151.16C332.483 151.16 334.275 148.968 334.275 145.528V144.952C334.275 141.512 332.387 139.4 329.491 139.4C326.611 139.4 324.691 141.528 324.691 145V145.576C324.691 149.016 326.579 151.16 329.491 151.16ZM342.25 151.16C343.53 151.16 344.266 150.696 344.81 149.976V151H346.714V145.512C346.714 143.224 345.242 142.456 343.37 142.456C341.498 142.456 339.946 143.272 339.786 145.224H341.658C341.754 144.392 342.25 143.912 343.258 143.912C344.394 143.912 344.778 144.472 344.778 145.592V146.024H343.738C341.338 146.024 339.45 146.728 339.45 148.68C339.45 150.424 340.714 151.16 342.25 151.16ZM342.714 149.768C341.754 149.768 341.37 149.304 341.37 148.6C341.37 147.576 342.314 147.24 343.786 147.24H344.778V148.072C344.778 149.144 343.898 149.768 342.714 149.768ZM348.933 151H350.869V145.992C350.869 144.712 351.749 144.072 352.709 144.072C353.653 144.072 354.197 144.6 354.197 145.832V151H356.133V145.992C356.133 144.712 357.013 144.072 357.973 144.072C358.933 144.072 359.461 144.6 359.461 145.832V151H361.397V145.704C361.397 143.4 360.149 142.456 358.613 142.456C357.573 142.456 356.421 142.92 355.781 143.96C355.365 142.92 354.501 142.456 353.413 142.456C352.181 142.456 351.269 143.128 350.869 143.912V142.632H348.933V151ZM370.281 151.144C370.873 151.144 371.289 151.048 371.593 150.936V149.4C371.321 149.512 371.033 149.56 370.649 149.56C370.041 149.56 369.689 149.224 369.689 148.488V144.088H371.529V142.632H369.689V140.792H367.753V142.632H366.633V144.088H367.753V148.664C367.753 150.248 368.617 151.144 370.281 151.144ZM377.084 149.656C375.612 149.656 374.764 148.584 374.764 146.872V146.744C374.764 145.016 375.644 143.976 377.084 143.976C378.524 143.976 379.388 145.032 379.388 146.76V146.872C379.388 148.584 378.524 149.656 377.084 149.656ZM377.068 151.16C379.532 151.16 381.372 149.464 381.372 146.856V146.728C381.372 144.168 379.532 142.456 377.084 142.456C374.62 142.456 372.78 144.184 372.78 146.776V146.904C372.78 149.448 374.604 151.16 377.068 151.16ZM387.893 151H390.085L394.245 139.816V139.56H386.245V141.288H391.573L387.893 151ZM396.071 151.112C396.791 151.112 397.351 150.568 397.351 149.864C397.351 149.16 396.791 148.6 396.071 148.6C395.367 148.6 394.807 149.16 394.807 149.864C394.807 150.568 395.367 151.112 396.071 151.112ZM396.071 146.44C396.791 146.44 397.351 145.88 397.351 145.176C397.351 144.472 396.791 143.928 396.071 143.928C395.367 143.928 394.807 144.472 394.807 145.176C394.807 145.88 395.367 146.44 396.071 146.44ZM403.161 151.16C405.785 151.16 407.449 149.848 407.449 147.736C407.449 146.216 406.569 145.272 405.241 144.968C406.345 144.552 407.097 143.768 407.097 142.472C407.097 140.776 405.705 139.4 403.321 139.4C400.873 139.4 399.385 140.92 399.273 142.904H401.161C401.289 141.752 402.073 141.016 403.289 141.016C404.473 141.016 405.065 141.704 405.065 142.632C405.065 143.704 404.473 144.312 403.161 144.312H402.345V145.832H403.225C404.617 145.832 405.289 146.456 405.289 147.704C405.289 148.84 404.601 149.56 403.113 149.56C401.577 149.56 400.905 148.664 400.793 147.464H398.857C398.953 149.656 400.441 151.16 403.161 151.16ZM413.93 149.464C412.218 149.464 411.226 148.152 411.226 145.56V144.984C411.226 142.44 412.17 141.064 413.898 141.064C415.61 141.064 416.538 142.536 416.538 144.968V145.528C416.538 148.12 415.69 149.464 413.93 149.464ZM413.882 151.16C416.874 151.16 418.666 148.968 418.666 145.528V144.952C418.666 141.512 416.778 139.4 413.882 139.4C411.002 139.4 409.082 141.528 409.082 145V145.576C409.082 149.016 410.97 151.16 413.882 151.16ZM424.449 153.864H426.385V149.688C426.833 150.504 427.793 151.16 429.121 151.16C431.281 151.16 432.833 149.528 432.833 146.84V146.712C432.833 144.008 431.217 142.456 429.121 142.456C427.889 142.456 426.849 143.176 426.385 143.976V142.632H424.449V153.864ZM428.641 149.624C427.233 149.624 426.321 148.744 426.321 146.872V146.744C426.321 144.888 427.281 143.976 428.625 143.976C429.889 143.976 430.849 144.888 430.849 146.744V146.872C430.849 148.664 430.065 149.624 428.641 149.624ZM434.574 151H436.51V145.992C436.51 144.712 437.39 144.072 438.35 144.072C439.294 144.072 439.838 144.6 439.838 145.832V151H441.774V145.992C441.774 144.712 442.654 144.072 443.614 144.072C444.574 144.072 445.102 144.6 445.102 145.832V151H447.038V145.704C447.038 143.4 445.79 142.456 444.254 142.456C443.214 142.456 442.062 142.92 441.422 143.96C441.006 142.92 440.142 142.456 439.054 142.456C437.822 142.456 436.91 143.128 436.51 143.912V142.632H434.574V151Z" fill="white"/>
<path d="M14.875 198.25C19.125 198.25 22.175 196.075 22.7 191.775H19.45C19.1 194.3 17.35 195.55 14.875 195.55C11.575 195.55 9.65 193.175 9.65 189.15V188.95C9.65 184.95 11.7 182.5 14.85 182.5C17.425 182.5 18.75 183.725 19.125 186.1H22.5C22.1 181.9 18.925 179.85 14.825 179.85C9.85 179.85 6.15 183.6 6.15 188.975V189.175C6.15 194.675 9.275 198.25 14.875 198.25ZM29.7053 198.25C31.8303 198.25 33.2053 197.225 33.8553 195.95V198H36.8803V184.925H33.8553V192.7C33.8553 194.775 32.4303 195.825 30.8053 195.825C29.0553 195.825 28.2303 194.925 28.2303 192.95V184.925H25.2053V193.3C25.2053 196.775 27.1303 198.25 29.7053 198.25ZM40.467 198H43.492V191.2C43.492 188.425 45.092 187.575 47.742 187.55V184.725C45.542 184.75 44.317 185.725 43.492 187.375V184.925H40.467V198ZM53.5844 198.25C55.5844 198.25 56.7344 197.525 57.5844 196.4V198H60.5594V189.425C60.5594 185.85 58.2594 184.65 55.3344 184.65C52.4094 184.65 49.9844 185.925 49.7344 188.975H52.6594C52.8094 187.675 53.5844 186.925 55.1594 186.925C56.9344 186.925 57.5344 187.8 57.5344 189.55V190.225H55.9094C52.1594 190.225 49.2094 191.325 49.2094 194.375C49.2094 197.1 51.1844 198.25 53.5844 198.25ZM54.3094 196.075C52.8094 196.075 52.2094 195.35 52.2094 194.25C52.2094 192.65 53.6844 192.125 55.9844 192.125H57.5344V193.425C57.5344 195.1 56.1594 196.075 54.3094 196.075ZM68.4766 198.225C69.4016 198.225 70.0516 198.075 70.5266 197.9V195.5C70.1016 195.675 69.6516 195.75 69.0516 195.75C68.1016 195.75 67.5516 195.225 67.5516 194.075V187.2H70.4266V184.925H67.5516V182.05H64.5266V184.925H62.7766V187.2H64.5266V194.35C64.5266 196.825 65.8766 198.225 68.4766 198.225ZM79.1051 195.9C76.8051 195.9 75.4801 194.225 75.4801 191.55V191.35C75.4801 188.65 76.8551 187.025 79.1051 187.025C81.3551 187.025 82.7051 188.675 82.7051 191.375V191.55C82.7051 194.225 81.3551 195.9 79.1051 195.9ZM79.0801 198.25C82.9301 198.25 85.8051 195.6 85.8051 191.525V191.325C85.8051 187.325 82.9301 184.65 79.1051 184.65C75.2551 184.65 72.3801 187.35 72.3801 191.4V191.6C72.3801 195.575 75.2301 198.25 79.0801 198.25ZM88.5383 198H91.5633V191.2C91.5633 188.425 93.1633 187.575 95.8133 187.55V184.725C93.6133 184.75 92.3883 185.725 91.5633 187.375V184.925H88.5383V198ZM104.732 201.7H106.982V178.6H104.732V201.7ZM118.759 198.225C122.059 198.225 124.284 196.45 124.284 192.575V180.125H120.934V192.5C120.934 194.7 119.884 195.55 118.259 195.55C117.209 195.55 116.584 195.35 115.959 195.1V197.7C116.534 198 117.284 198.225 118.759 198.225ZM129.271 202.475H132.246L139.371 184.925H136.421L133.221 193.35L129.746 184.925H126.471L131.646 196.675L129.271 202.475ZM147.001 195.9C144.701 195.9 143.376 194.225 143.376 191.55V191.35C143.376 188.65 144.751 187.025 147.001 187.025C149.251 187.025 150.601 188.675 150.601 191.375V191.55C150.601 194.225 149.251 195.9 147.001 195.9ZM146.976 198.25C150.826 198.25 153.701 195.6 153.701 191.525V191.325C153.701 187.325 150.826 184.65 147.001 184.65C143.151 184.65 140.276 187.35 140.276 191.4V191.6C140.276 195.575 143.126 198.25 146.976 198.25ZM160.884 198.225C161.809 198.225 162.459 198.075 162.934 197.9V195.5C162.509 195.675 162.059 195.75 161.459 195.75C160.509 195.75 159.959 195.225 159.959 194.075V187.2H162.834V184.925H159.959V182.05H156.934V184.925H155.184V187.2H156.934V194.35C156.934 196.825 158.284 198.225 160.884 198.225ZM165.737 198H168.762V184.925H165.737V198ZM167.212 182.775C168.212 182.775 169.012 182.025 169.012 181.05C169.012 180.05 168.212 179.3 167.212 179.3C166.212 179.3 165.412 180.05 165.412 181.05C165.412 182.025 166.212 182.775 167.212 182.775ZM178.656 198H181.981V189.65L188.856 198H192.781L185.006 188.65L192.406 180.1H188.831L181.981 188.225V180.125H178.656V198ZM198.189 198.25C200.189 198.25 201.339 197.525 202.189 196.4V198H205.164V189.425C205.164 185.85 202.864 184.65 199.939 184.65C197.014 184.65 194.589 185.925 194.339 188.975H197.264C197.414 187.675 198.189 186.925 199.764 186.925C201.539 186.925 202.139 187.8 202.139 189.55V190.225H200.514C196.764 190.225 193.814 191.325 193.814 194.375C193.814 197.1 195.789 198.25 198.189 198.25ZM198.914 196.075C197.414 196.075 196.814 195.35 196.814 194.25C196.814 192.65 198.289 192.125 200.589 192.125H202.139V193.425C202.139 195.1 200.764 196.075 198.914 196.075ZM208.706 198H211.731V178.875H208.706V198ZM215.418 198H218.443V191.2C218.443 188.425 220.043 187.575 222.693 187.55V184.725C220.493 184.75 219.268 185.725 218.443 187.375V184.925H215.418V198ZM228.536 198.25C230.536 198.25 231.686 197.525 232.536 196.4V198H235.511V189.425C235.511 185.85 233.211 184.65 230.286 184.65C227.361 184.65 224.936 185.925 224.686 188.975H227.611C227.761 187.675 228.536 186.925 230.111 186.925C231.886 186.925 232.486 187.8 232.486 189.55V190.225H230.861C227.111 190.225 224.161 191.325 224.161 194.375C224.161 197.1 226.136 198.25 228.536 198.25ZM229.261 196.075C227.761 196.075 227.161 195.35 227.161 194.25C227.161 192.65 228.636 192.125 230.936 192.125H232.486V193.425C232.486 195.1 231.111 196.075 229.261 196.075Z" fill="white"/>
<path d="M33.36 25.4C33.36 22.6 33.36 20.14 33.36 18.02C33.36 15.86 33.34 14 33.3 12.44C33.26 10.84 33.22 9.5 33.18 8.42C33.14 7.34 33.06 6.46 32.94 5.78C33.5 5.9 34 6 34.44 6.08C34.88 6.16 35.3 6.2 35.7 6.2C36.26 6.2 36.98 6.04 37.86 5.72C37.74 7.12 37.62 8.8 37.5 10.76C37.38 12.72 37.26 14.82 37.14 17.06C37.06 19.3 36.98 21.6 36.9 23.96C36.82 26.32 36.76 28.58 36.72 30.74C36.68 33.38 36.28 35.78 35.52 37.94C34.76 40.06 33.64 41.88 32.16 43.4C30.72 44.88 28.94 46.04 26.82 46.88C24.7 47.68 22.28 48.08 19.56 48.08C13.6 48.08 9.24 46.68 6.48 43.88C3.72 41.04 2.34 36.7 2.34 30.86C2.34 29.86 2.36 28.94 2.4 28.1C2.44 27.26 2.48 26.44 2.52 25.64C2.56 24.92 2.58 24.24 2.58 23.6C2.62 22.92 2.64 22.22 2.64 21.5C2.64 18.7 2.6 16.16 2.52 13.88C2.48 11.56 2.42 9.52 2.34 7.76C2.34 7.44 2.32 7.1 2.28 6.74C2.28 6.38 2.28 6.08 2.28 5.84C2.84 5.96 3.42 6.06 4.02 6.14C4.66 6.18 5.2 6.2 5.64 6.2C6.04 6.2 6.48 6.16 6.96 6.08C7.48 6 8.02 5.9 8.58 5.78C8.46 6.74 8.36 7.96 8.28 9.44C8.2 10.88 8.12 12.5 8.04 14.3C7.96 16.1 7.9 18.04 7.86 20.12C7.82 22.2 7.8 24.32 7.8 26.48C7.8 28.48 7.86 30.56 7.98 32.72C8.14 34.84 8.62 36.8 9.42 38.6C10.22 40.36 11.48 41.82 13.2 42.98C14.96 44.14 17.46 44.72 20.7 44.72C23.86 44.72 26.3 44.06 28.02 42.74C29.74 41.42 30.98 39.78 31.74 37.82C32.54 35.86 33 33.76 33.12 31.52C33.28 29.28 33.36 27.24 33.36 25.4ZM40.7091 32.84C40.7091 30.24 41.1491 28 42.0291 26.12C42.9091 24.24 44.0691 22.68 45.5091 21.44C46.9491 20.2 48.5891 19.3 50.4291 18.74C52.2691 18.14 54.1491 17.84 56.0691 17.84C58.2691 17.84 60.2691 18.14 62.0691 18.74C63.8691 19.3 65.1691 19.94 65.9691 20.66C65.6491 21.34 65.3691 22.04 65.1291 22.76C64.8891 23.44 64.6891 24.16 64.5291 24.92H63.7491C63.4691 24.44 63.0891 23.92 62.6091 23.36C62.1291 22.8 61.5691 22.3 60.9291 21.86C60.2891 21.42 59.5691 21.06 58.7691 20.78C57.9691 20.46 57.1291 20.3 56.2491 20.3C54.5291 20.3 53.0491 20.62 51.8091 21.26C50.5691 21.9 49.5491 22.78 48.7491 23.9C47.9891 25.02 47.4291 26.34 47.0691 27.86C46.7091 29.38 46.5291 31.02 46.5291 32.78C46.5291 36.78 47.3691 39.8 49.0491 41.84C50.7691 43.84 53.2291 44.84 56.4291 44.84C57.1891 44.84 57.9691 44.74 58.7691 44.54C59.6091 44.3 60.4091 43.98 61.1691 43.58C61.9691 43.18 62.7091 42.72 63.3891 42.2C64.1091 41.64 64.7491 41.06 65.3091 40.46L65.9691 40.94C65.8891 41.54 65.8091 42.12 65.7291 42.68C65.6491 43.24 65.5891 43.74 65.5491 44.18C64.3091 45.14 62.7691 46 60.9291 46.76C59.1291 47.52 57.2891 47.9 55.4091 47.9C53.6491 47.9 51.8891 47.62 50.1291 47.06C48.4091 46.5 46.8491 45.62 45.4491 44.42C44.0491 43.22 42.9091 41.68 42.0291 39.8C41.1491 37.88 40.7091 35.56 40.7091 32.84ZM69.9113 19.28C69.9113 17.96 69.8913 16.52 69.8513 14.96C69.8513 13.36 69.8313 11.78 69.7913 10.22C69.7513 8.66 69.6913 7.16 69.6113 5.72C69.5713 4.28 69.4913 3 69.3713 1.88C70.4513 2.12 71.4513 2.24 72.3713 2.24C73.3313 2.24 74.3313 2.12 75.3713 1.88C75.2913 3 75.2113 4.3 75.1313 5.78C75.0913 7.22 75.0513 8.72 75.0113 10.28C74.9712 11.8 74.9313 13.32 74.8913 14.84C74.8913 16.36 74.8913 17.74 74.8913 18.98L75.0113 22.52C76.0913 21.04 77.3713 19.9 78.8513 19.1C80.3713 18.26 82.1313 17.84 84.1313 17.84C85.2513 17.84 86.3913 18 87.5513 18.32C88.7113 18.64 89.7513 19.2 90.6713 20C91.6313 20.76 92.4113 21.84 93.0113 23.24C93.6113 24.6 93.9113 26.32 93.9113 28.4C93.9113 30.2 93.8713 32 93.7913 33.8C93.7113 35.56 93.6713 37.42 93.6713 39.38C93.6713 40.66 93.6713 42 93.6713 43.4C93.6713 44.76 93.7113 46.08 93.7913 47.36C92.7113 47.12 91.7913 47 91.0313 47C90.1913 47 89.2713 47.12 88.2713 47.36L88.4513 42.2C88.5313 40.8 88.5913 39.42 88.6313 38.06C88.6713 36.66 88.6913 35.24 88.6913 33.8V30.2C88.6913 27.36 88.1313 25.2 87.0113 23.72C85.9313 22.24 84.4513 21.5 82.5713 21.5C79.8913 21.5 77.9313 22.32 76.6913 23.96C75.4913 25.6 74.8913 27.92 74.8913 30.92C74.8913 32 74.8913 33.26 74.8913 34.7C74.9313 36.14 74.9712 37.62 75.0113 39.14C75.0513 40.62 75.0913 42.08 75.1313 43.52C75.2113 44.96 75.2913 46.24 75.3713 47.36C74.3313 47.12 73.3313 47 72.3713 47C71.4513 47 70.4513 47.12 69.3713 47.36C69.4913 46.24 69.5713 44.96 69.6113 43.52C69.6913 42.04 69.7513 40.52 69.7913 38.96C69.8313 37.4 69.8513 35.84 69.8513 34.28C69.8913 32.72 69.9113 31.28 69.9113 29.96V19.28ZM98.8289 21.44C100.709 20.08 102.409 19.14 103.929 18.62C105.489 18.1 107.069 17.84 108.669 17.84C111.629 17.84 114.009 18.66 115.809 20.3C117.649 21.94 118.569 24.14 118.569 26.9C118.569 29.1 118.529 31.32 118.449 33.56C118.369 35.8 118.329 38.18 118.329 40.7C118.329 41.14 118.329 41.6 118.329 42.08C118.369 42.56 118.449 43 118.569 43.4C118.689 43.8 118.889 44.14 119.169 44.42C119.449 44.66 119.829 44.78 120.309 44.78C120.509 44.78 120.729 44.76 120.969 44.72C121.209 44.68 121.509 44.56 121.869 44.36V46.34C121.429 46.54 120.849 46.74 120.129 46.94C119.449 47.14 118.669 47.24 117.789 47.24C116.549 47.24 115.569 46.92 114.849 46.28C114.169 45.64 113.709 44.88 113.469 44C112.109 45.32 110.749 46.3 109.389 46.94C108.069 47.58 106.409 47.9 104.409 47.9C103.369 47.9 102.349 47.72 101.349 47.36C100.389 47 99.5289 46.5 98.7689 45.86C98.0089 45.18 97.3889 44.38 96.9089 43.46C96.4689 42.54 96.2489 41.5 96.2489 40.34C96.2489 37.82 97.0089 35.9 98.5289 34.58C100.089 33.22 102.189 32.34 104.829 31.94C106.909 31.62 108.529 31.34 109.689 31.1C110.849 30.86 111.709 30.6 112.269 30.32C112.829 30.04 113.169 29.74 113.289 29.42C113.409 29.06 113.469 28.62 113.469 28.1C113.469 27.14 113.349 26.24 113.109 25.4C112.909 24.52 112.549 23.76 112.029 23.12C111.549 22.44 110.909 21.9 110.109 21.5C109.309 21.1 108.349 20.9 107.229 20.9C105.709 20.9 104.269 21.26 102.909 21.98C101.589 22.66 100.589 23.64 99.9089 24.92H98.8289V21.44ZM113.469 32.48C113.029 32.6 112.549 32.72 112.029 32.84C111.549 32.92 111.029 33.02 110.469 33.14C109.469 33.34 108.449 33.56 107.409 33.8C106.369 34.04 105.429 34.4 104.589 34.88C103.749 35.32 103.049 35.9 102.489 36.62C101.969 37.34 101.709 38.3 101.709 39.5C101.709 41.3 102.209 42.64 103.209 43.52C104.209 44.4 105.329 44.84 106.569 44.84C108.009 44.84 109.309 44.44 110.469 43.64C111.629 42.84 112.549 41.92 113.229 40.88L113.469 32.48ZM127.364 21.44C129.244 20.08 130.944 19.14 132.464 18.62C134.024 18.1 135.604 17.84 137.204 17.84C140.164 17.84 142.544 18.66 144.344 20.3C146.184 21.94 147.104 24.14 147.104 26.9C147.104 29.1 147.064 31.32 146.984 33.56C146.904 35.8 146.864 38.18 146.864 40.7C146.864 41.14 146.864 41.6 146.864 42.08C146.904 42.56 146.984 43 147.104 43.4C147.224 43.8 147.424 44.14 147.704 44.42C147.984 44.66 148.364 44.78 148.844 44.78C149.044 44.78 149.264 44.76 149.504 44.72C149.744 44.68 150.044 44.56 150.404 44.36V46.34C149.964 46.54 149.384 46.74 148.664 46.94C147.984 47.14 147.204 47.24 146.324 47.24C145.084 47.24 144.104 46.92 143.384 46.28C142.704 45.64 142.244 44.88 142.004 44C140.644 45.32 139.284 46.3 137.924 46.94C136.604 47.58 134.944 47.9 132.944 47.9C131.904 47.9 130.884 47.72 129.884 47.36C128.924 47 128.064 46.5 127.304 45.86C126.544 45.18 125.924 44.38 125.444 43.46C125.004 42.54 124.784 41.5 124.784 40.34C124.784 37.82 125.544 35.9 127.064 34.58C128.624 33.22 130.724 32.34 133.364 31.94C135.444 31.62 137.064 31.34 138.224 31.1C139.384 30.86 140.244 30.6 140.804 30.32C141.364 30.04 141.704 29.74 141.824 29.42C141.944 29.06 142.004 28.62 142.004 28.1C142.004 27.14 141.884 26.24 141.644 25.4C141.444 24.52 141.084 23.76 140.564 23.12C140.084 22.44 139.444 21.9 138.644 21.5C137.844 21.1 136.884 20.9 135.764 20.9C134.244 20.9 132.804 21.26 131.444 21.98C130.124 22.66 129.124 23.64 128.444 24.92H127.364V21.44ZM142.004 32.48C141.564 32.6 141.084 32.72 140.564 32.84C140.084 32.92 139.564 33.02 139.004 33.14C138.004 33.34 136.984 33.56 135.944 33.8C134.904 34.04 133.964 34.4 133.124 34.88C132.284 35.32 131.584 35.9 131.024 36.62C130.504 37.34 130.244 38.3 130.244 39.5C130.244 41.3 130.744 42.64 131.744 43.52C132.744 44.4 133.864 44.84 135.104 44.84C136.544 44.84 137.844 44.44 139.004 43.64C140.164 42.84 141.084 41.92 141.764 40.88L142.004 32.48ZM173.239 30.2C173.239 27.36 172.679 25.2 171.559 23.72C170.479 22.24 168.999 21.5 167.119 21.5C164.439 21.5 162.479 22.32 161.239 23.96C160.039 25.6 159.439 27.92 159.439 30.92V35.96C159.439 37.68 159.459 39.54 159.499 41.54C159.579 43.5 159.719 45.44 159.919 47.36C158.879 47.12 157.879 47 156.919 47C155.999 47 154.999 47.12 153.919 47.36C154.119 45.44 154.259 43.5 154.339 41.54C154.419 39.54 154.459 37.68 154.459 35.96V29.78C154.459 28.06 154.419 26.22 154.339 24.26C154.259 22.26 154.119 20.3 153.919 18.38C154.999 18.62 155.999 18.74 156.919 18.74C157.679 18.74 158.599 18.62 159.679 18.38C159.559 19.66 159.499 20.84 159.499 21.92V22.58C160.579 21.06 161.859 19.9 163.339 19.1C164.859 18.26 166.639 17.84 168.679 17.84C169.799 17.84 170.939 18 172.099 18.32C173.259 18.64 174.299 19.2 175.219 20C176.179 20.76 176.959 21.84 177.559 23.24C178.159 24.6 178.459 26.32 178.459 28.4C178.459 30.2 178.419 32 178.339 33.8C178.259 35.56 178.219 37.42 178.219 39.38C178.219 40.66 178.219 42 178.219 43.4C178.219 44.76 178.259 46.08 178.339 47.36C177.259 47.12 176.339 47 175.579 47C174.739 47 173.819 47.12 172.819 47.36L172.999 42.2C173.079 40.8 173.139 39.42 173.179 38.06C173.219 36.66 173.239 35.24 173.239 33.8V30.2ZM216.234 5.12C216.914 6.76 217.634 8.52 218.394 10.4C219.194 12.24 219.994 14.12 220.794 16.04C222.034 19.04 223.314 22.14 224.634 25.34C225.994 28.54 227.294 31.58 228.534 34.46C229.774 37.34 230.894 39.92 231.894 42.2C232.894 44.48 233.674 46.22 234.234 47.42C233.514 47.3 232.834 47.2 232.194 47.12C231.594 47.04 231.074 47 230.634 47C229.714 47 228.594 47.12 227.274 47.36C226.754 45.6 226.074 43.62 225.234 41.42C224.394 39.22 223.514 37.02 222.594 34.82C222.354 34.18 222.114 33.6 221.874 33.08C221.634 32.56 221.414 32.02 221.214 31.46C219.934 31.42 218.674 31.4 217.434 31.4C216.194 31.36 214.934 31.34 213.654 31.34C212.454 31.34 211.294 31.36 210.174 31.4C209.054 31.4 207.894 31.42 206.694 31.46C205.494 34.46 204.374 37.38 203.334 40.22C202.294 43.02 201.494 45.4 200.934 47.36C200.094 47.12 199.294 47 198.534 47C198.134 47 197.714 47.04 197.274 47.12C196.834 47.2 196.354 47.3 195.834 47.42C198.994 40.46 202.154 33.44 205.314 26.36C208.514 19.24 211.614 12.16 214.614 5.12H216.234ZM214.014 14.24C212.974 16.68 211.974 19 211.014 21.2C210.094 23.4 209.114 25.7 208.074 28.1C208.514 28.1 208.954 28.12 209.394 28.16C209.874 28.16 210.334 28.16 210.774 28.16C211.334 28.2 211.874 28.22 212.394 28.22C212.914 28.22 213.434 28.22 213.954 28.22C215.074 28.22 216.094 28.22 217.014 28.22C217.974 28.18 219.014 28.14 220.134 28.1L214.014 14.24ZM250.981 23.9C250.741 23.7 250.341 23.5 249.781 23.3C249.261 23.06 248.721 22.94 248.161 22.94C247.241 22.94 246.421 23.14 245.701 23.54C245.021 23.94 244.441 24.5 243.961 25.22C243.481 25.94 243.101 26.78 242.821 27.74C242.581 28.7 242.461 29.74 242.461 30.86C242.461 33.38 242.461 35.5 242.461 37.22C242.461 38.94 242.461 40.42 242.461 41.66C242.501 42.9 242.521 43.96 242.521 44.84C242.561 45.72 242.621 46.58 242.701 47.42C242.181 47.3 241.681 47.2 241.201 47.12C240.761 47.04 240.361 47 240.001 47C239.201 47 238.261 47.12 237.181 47.36C237.341 45.56 237.421 43.5 237.421 41.18C237.461 38.86 237.481 36.08 237.481 32.84V30.98C237.481 29.46 237.461 27.62 237.421 25.46C237.421 23.3 237.361 20.94 237.241 18.38C238.321 18.62 239.241 18.74 240.001 18.74C240.361 18.74 240.761 18.7 241.201 18.62C241.681 18.54 242.181 18.44 242.701 18.32C242.621 19.36 242.561 20.26 242.521 21.02C242.481 21.74 242.461 22.38 242.461 22.94V23.6C243.581 21.68 244.781 20.24 246.061 19.28C247.381 18.32 248.701 17.84 250.021 17.84C250.421 17.84 250.761 17.88 251.041 17.96C251.361 18 251.781 18.12 252.301 18.32C252.021 18.96 251.861 19.78 251.821 20.78C251.781 21.78 251.761 22.68 251.761 23.48L250.981 23.9ZM261.782 10.52H262.502C262.382 12 262.282 13.46 262.202 14.9C262.162 16.34 262.102 17.8 262.022 19.28C262.542 19.28 263.402 19.28 264.602 19.28C265.802 19.24 267.042 19.18 268.322 19.1C268.242 19.5 268.202 19.8 268.202 20C268.202 20.2 268.202 20.4 268.202 20.6C268.202 20.8 268.202 21 268.202 21.2C268.202 21.4 268.242 21.72 268.322 22.16C267.802 22.12 267.242 22.1 266.642 22.1C266.042 22.06 265.442 22.04 264.842 22.04C264.282 22.04 263.742 22.04 263.222 22.04C262.742 22.04 262.322 22.04 261.962 22.04C261.922 22.48 261.882 23.28 261.842 24.44C261.802 25.56 261.762 26.84 261.722 28.28C261.682 29.72 261.642 31.2 261.602 32.72C261.602 34.24 261.602 35.58 261.602 36.74C261.602 37.82 261.622 38.88 261.662 39.92C261.742 40.96 261.922 41.88 262.202 42.68C262.482 43.48 262.922 44.14 263.522 44.66C264.162 45.14 265.022 45.38 266.102 45.38C266.422 45.38 266.862 45.34 267.422 45.26C268.022 45.14 268.562 45.02 269.042 44.9V46.94C268.282 47.22 267.482 47.44 266.642 47.6C265.802 47.8 264.982 47.9 264.182 47.9C261.622 47.9 259.722 47.22 258.482 45.86C257.242 44.5 256.622 42.62 256.622 40.22C256.622 40.1 256.622 39.72 256.622 39.08C256.662 38.44 256.682 37.76 256.682 37.04C256.722 36.28 256.742 35.58 256.742 34.94C256.782 34.26 256.802 33.84 256.802 33.68C256.882 32.08 256.922 30.36 256.922 28.52C256.962 26.68 257.002 24.52 257.042 22.04H252.962C253.002 21.72 253.042 21.42 253.082 21.14C253.122 20.86 253.142 20.64 253.142 20.48C253.142 20.44 253.122 20.28 253.082 20C253.042 19.68 253.002 19.36 252.962 19.04C254.682 19.16 256.002 19.22 256.922 19.22C256.922 18.94 256.902 18.68 256.862 18.44C256.862 18.16 256.862 17.86 256.862 17.54C256.822 16.86 256.782 16.06 256.742 15.14C256.742 14.22 256.722 13.38 256.682 12.62L261.782 10.52ZM273.434 41C273.634 41.4 273.934 41.84 274.334 42.32C274.734 42.8 275.214 43.24 275.774 43.64C276.334 44.04 276.974 44.38 277.694 44.66C278.414 44.94 279.174 45.08 279.974 45.08C280.654 45.08 281.314 44.98 281.954 44.78C282.634 44.58 283.214 44.28 283.694 43.88C284.214 43.44 284.634 42.92 284.954 42.32C285.274 41.68 285.434 40.94 285.434 40.1C285.434 39.3 285.274 38.64 284.954 38.12C284.634 37.6 284.194 37.16 283.634 36.8C283.074 36.44 282.434 36.14 281.714 35.9C280.994 35.62 280.254 35.36 279.494 35.12C278.534 34.84 277.574 34.52 276.614 34.16C275.654 33.8 274.794 33.34 274.034 32.78C273.274 32.18 272.654 31.44 272.174 30.56C271.694 29.64 271.454 28.48 271.454 27.08C271.454 24.4 272.334 22.2 274.094 20.48C275.854 18.72 278.354 17.84 281.594 17.84C282.754 17.84 283.754 17.98 284.594 18.26C285.434 18.5 286.194 18.76 286.874 19.04C287.194 19.16 287.474 19.28 287.714 19.4C287.994 19.48 288.294 19.56 288.614 19.64C288.414 19.96 288.214 20.34 288.014 20.78C287.854 21.22 287.694 21.66 287.534 22.1C287.374 22.54 287.234 22.96 287.114 23.36C287.034 23.72 286.974 24.02 286.934 24.26H285.794C285.474 23.34 284.874 22.5 283.994 21.74C283.114 20.98 282.054 20.6 280.814 20.6C280.254 20.6 279.694 20.7 279.134 20.9C278.574 21.06 278.054 21.34 277.574 21.74C277.134 22.1 276.774 22.58 276.494 23.18C276.214 23.78 276.074 24.48 276.074 25.28C276.074 26.12 276.234 26.82 276.554 27.38C276.914 27.9 277.374 28.36 277.934 28.76C278.534 29.12 279.194 29.44 279.914 29.72C280.634 29.96 281.374 30.2 282.134 30.44C283.094 30.72 284.034 31.02 284.954 31.34C285.914 31.66 286.754 32.1 287.474 32.66C288.234 33.22 288.854 33.96 289.334 34.88C289.814 35.76 290.054 36.88 290.054 38.24C290.054 39.4 289.794 40.56 289.274 41.72C288.794 42.84 288.074 43.86 287.114 44.78C286.154 45.7 284.994 46.44 283.634 47C282.274 47.6 280.754 47.9 279.074 47.9C277.274 47.9 275.714 47.66 274.394 47.18C273.074 46.74 271.954 46.24 271.034 45.68C271.314 45.12 271.594 44.36 271.874 43.4C272.154 42.44 272.294 41.64 272.294 41H273.434Z" fill="white"/>
</svg>
