<svg width="33" height="27" viewBox="0 0 33 27" fill="none" xmlns="http://www.w3.org/2000/svg">
<path opacity="0.6" d="M32.6667 3.07867C31.4894 3.60133 30.2241 3.95333 28.8961 4.112C30.2521 3.3 31.2934 2.01333 31.7827 0.48C30.5147 1.232 29.1094 1.77867 27.6134 2.07333C26.4174 0.797333 24.7094 0 22.8214 0C18.5827 0 15.4681 3.95467 16.4254 8.06C10.9707 7.78667 6.13341 5.17333 2.89475 1.20133C1.17475 4.152 2.00275 8.012 4.92542 9.96667C3.85075 9.932 2.83741 9.63733 1.95341 9.14533C1.88141 12.1867 4.06141 15.032 7.21875 15.6653C6.29475 15.916 5.28275 15.9747 4.25341 15.7773C5.08808 18.3853 7.51208 20.2827 10.3867 20.336C7.62675 22.5 4.14941 23.4667 0.666748 23.056C3.57208 24.9187 7.02408 26.0053 10.7307 26.0053C22.9201 26.0053 29.8067 15.7107 29.3907 6.47733C30.6734 5.55067 31.7867 4.39467 32.6667 3.07867Z" fill="white"/>
</svg>
