<svg width="19" height="22" viewBox="0 0 19 22" fill="none" xmlns="http://www.w3.org/2000/svg">
<path d="M18 21C18 17.13 14.1903 14 9.5 14C4.8097 14 1 17.13 1 21M9.5 11C10.8122 11 12.0706 10.4732 12.9985 9.5355C13.9263 8.5979 14.4476 7.3261 14.4476 6C14.4476 4.6739 13.9263 3.4021 12.9985 2.4645C12.0706 1.5268 10.8122 1 9.5 1C8.1878 1 6.9294 1.5268 6.0015 2.4645C5.0737 3.4021 4.5524 4.6739 4.5524 6C4.5524 7.3261 5.0737 8.5979 6.0015 9.5355C6.9294 10.4732 8.1878 11 9.5 11Z" stroke="#162A4C" stroke-width="1.6" stroke-linecap="round" stroke-linejoin="round"/>
</svg>
