<svg width="17" height="17" viewBox="0 0 17 17" fill="none" xmlns="http://www.w3.org/2000/svg">
<path opacity="0.5" d="M16.986 7.99784C16.6971 3.06848 12.2181 -0.730523 7.05931 0.119367C3.50678 0.70579 0.659646 3.58692 0.107218 7.13945C-0.21574 9.19619 0.209204 11.1424 1.13558 12.7487L0.379182 15.5619C0.209205 16.1993 0.795628 16.7772 1.42455 16.5987L4.19519 15.8338C5.45302 16.5732 6.92333 16.9982 8.49562 16.9982C13.289 16.9982 17.2665 12.7742 16.986 7.99784ZM12.6516 11.6609C12.4466 12.0813 12.0964 12.4134 11.6657 12.5957C11.4107 12.7062 11.1303 12.7572 10.8328 12.7572C10.3994 12.7572 9.93194 12.6552 9.4475 12.4428C8.9312 12.2161 8.44105 11.9339 7.98569 11.6014C7.49276 11.2444 7.03382 10.845 6.59187 10.4115C6.14993 9.96958 5.75898 9.50214 5.40203 9.01771C5.05357 8.53327 4.77311 8.04883 4.56914 7.5644C4.36516 7.07996 4.26318 6.61252 4.26318 6.17058C4.26318 5.88162 4.31417 5.60115 4.41616 5.34619C4.51814 5.08272 4.67962 4.84475 4.90909 4.63228C5.18106 4.36031 5.47852 4.23283 5.79298 4.23283C5.91196 4.23283 6.03095 4.25833 6.14143 4.30932C6.25192 4.36031 6.3539 4.4368 6.43039 4.54729L7.41627 5.94111C7.49276 6.05159 7.55225 6.14508 7.58624 6.23857C7.62874 6.33206 7.64574 6.41705 7.64574 6.50204C7.64574 6.60402 7.61174 6.70601 7.55225 6.808C7.49276 6.90998 7.41627 7.01197 7.31428 7.11396L6.99132 7.45391C6.94033 7.50491 6.92333 7.5559 6.92333 7.62389C6.92333 7.65789 6.93183 7.69188 6.94033 7.72588C6.95733 7.75987 6.96582 7.78537 6.97432 7.81087C7.05081 7.95535 7.1868 8.13382 7.37377 8.35479C7.77168 8.82238 8.20652 9.25722 8.6741 9.65513C8.89507 9.8421 9.08205 9.96958 9.22653 10.0461C9.25203 10.0546 9.27752 10.0716 9.30302 10.0801C9.33702 10.0971 9.37101 10.0971 9.41351 10.0971C9.49 10.0971 9.54099 10.0716 9.59198 10.0206L9.91494 9.69762C10.0254 9.58713 10.1274 9.51064 10.2209 9.45965C10.3229 9.40016 10.4164 9.36616 10.5269 9.36616C10.6118 9.36616 10.6968 9.38316 10.7903 9.42566C10.8838 9.46815 10.9858 9.51914 11.0878 9.59563L12.4986 10.5985C12.6091 10.675 12.6856 10.7685 12.7366 10.8705C12.7791 10.981 12.8046 11.0829 12.8046 11.2019C12.7536 11.3464 12.7196 11.5079 12.6516 11.6609Z" fill="white"/>
</svg>
