<svg width="30" height="20" viewBox="0 0 30 20" fill="none" xmlns="http://www.w3.org/2000/svg">
<path opacity="0.6" d="M15.476 19.9738L9.5263 19.8653C7.59993 19.8275 5.66876 19.903 3.78016 19.5113C0.907157 18.9262 0.703623 16.057 0.490647 13.6504C0.197188 10.2669 0.310795 6.82204 0.864591 3.46682C1.17723 1.58419 2.40758 0.460812 4.31027 0.338567C10.7333 -0.105078 17.199 -0.0525011 23.6077 0.154475C24.2846 0.173449 24.9661 0.277155 25.6335 0.395199C28.9279 0.970938 29.0082 4.22231 29.2218 6.95935C29.4348 9.72463 29.3448 12.5041 28.9378 15.2506C28.6112 17.5246 27.9864 19.4315 25.3494 19.6156C22.0455 19.8563 18.8175 20.0501 15.5043 19.9884C15.5044 19.9738 15.4854 19.9738 15.476 19.9738ZM11.9781 14.2167C14.4679 12.7915 16.9102 11.39 19.3857 9.97434C16.8913 8.54911 14.4537 7.14764 11.9781 5.73197V14.2167Z" fill="white"/>
</svg>
